<?xml version="1.0" standalone="yes"?>
<svg
  xmlns="http://www.w3.org/2000/svg" width="50" height="50" style="zoom: 8;">
  <title>C</title>
  <defs>
    <linearGradient id="a" x1="13.544922%" x2="85.967773%" y1="10.595703%" y2="87.599609%">
      <stop stop-color="#FFE2E2" offset="0%"></stop>
      <stop stop-color="#FFC0C0" offset="100%"></stop>
    </linearGradient>
  </defs>
  <g fill="none" fill-rule="evenodd">
    <ellipse cx="25" cy="25" fill="url(#a)" rx="25" ry="25"></ellipse>
    <path fill="#35424F" d="M34.047928,18.318335 c-.959162,-1.3515 -2.194986,-2.388253 -3.70751,-3.110288 S27.121716,14.125 25.221838,14.125 c-1.899878,0 -3.675222,.45358 -5.326087,1.36075 c-1.65086,.907173 -2.94202,2.161458 -3.87351,3.762895 C15.09074,20.85008 14.625,22.594971 14.625,24.48337 c0,3.054763 1.00526,5.581847 3.01581,7.581328 c2.01055,1.999482 4.59287,2.999207 7.747036,2.999207 c1.80765,0 3.45849,-.33787 4.95257,-1.01362 c1.494078,-.67575 2.729902,-1.661592 3.70751,-2.957552 l-1.549408,-1.194128 c-1.862987,2.184618 -4.196297,3.27691 -7,3.27691 c-2.508577,0 -4.59749,-.809962 -6.2668,-2.429912 c-1.66931,-1.61995 -2.50395,-3.637914 -2.50395,-6.053954 s.853086,-4.45715 2.559287,-6.12338 c1.7062,-1.66624 3.739778,-2.49934 6.10079,-2.49934 c2.89593,0 5.26613,1.14783 7.110673,3.44353 l1.549407,-1.19413 m1.220883,1.584122 l-1.549407,1.19413 l-1.55238,1.19642 l-1.22759,-1.52785 c-1.46676,-1.825518 -3.26472,-2.696227 -5.55158,-2.696227 c-1.83731,0 -3.36981,.627824 -4.70343,1.930212 c-1.31941,1.288503 -1.956643,2.813158 -1.956643,4.692507 c0,1.88087 .619835,3.37948 1.896787,4.61868 c1.287944,1.24986 2.874885,1.86518 4.873964,1.86518 c2.214037,0 3.99264,-.83262 5.478208,-2.57466 l1.235068,-1.44829 l1.50761,1.161914 l1.549408,1.19413 l1.56783,1.208325 l-1.19205,1.580237 c-1.17984,1.564046 -2.681542,2.761983 -4.47998,3.57539 c-1.759883,.79597 -3.691663,1.19134 -5.77676,1.19134 c-3.667795,0 -6.76028,-1.19723 -9.15734,-3.581095 C13.834311,31.0998 12.625,28.059771 12.625,24.48337 c0,-2.2399 .558405,-4.33196 1.66842,-6.24031 c1.114926,-1.916798 2.671344,-3.428766 4.63915,-4.5101 C20.879227,12.663244 22.98596,12.125 25.221836,12.125 c2.188992,0 4.18933,.423255 5.98018,1.278154 c1.819032,.868352 3.320007,2.127544 4.476903,3.757662 l1.112777,1.56795 l-1.52289,1.17369  z "></path>
    <path fill="#FFF" d="M33.922928,18.193335 l-1.549407,1.19413 c-1.844542,-2.295702 -4.214742,-3.443535 -7.110672,-3.443535 c-2.361013,0 -4.39459,.833105 -6.10079,2.49934 c-1.706202,1.666233 -2.55929,3.70734 -2.55929,6.12338 s.834643,4.434003 2.503953,6.053953 c1.66931,1.61995 3.75822,2.429913 6.26679,2.429913 c2.803702,0 5.137012,-1.092293 7,-3.27691 l1.549406,1.194127 c-.977607,1.29596 -2.21343,2.2818 -3.70751,2.95755 c-1.49408,.675752 -3.144918,1.013622 -4.95257,1.013622 c-3.154165,0 -5.736484,-.999725 -7.747035,-2.999206 C15.50526,29.94021 14.5,27.41313 14.5,24.35836 c0,-1.888398 .46574,-3.63329 1.397233,-5.234725 c.931494,-1.601437 2.222653,-2.85572 3.873518,-3.762894 C21.421619,14.45358 23.19696,14 25.09684,14 c1.899878,0 3.606053,.361012 5.118577,1.083047 c1.512524,.722035 2.748348,1.758787 3.70751,3.110288  z "></path>
  </g>
</svg>